# Blender 4.0.2
# www.blender.org
mtllib PistonBase.mtl
o PistonBase
v -0.307897 0.199515 0.033706
v -0.315067 0.200387 -0.050019
v -0.306333 0.199352 0.033571
v -0.313503 0.200223 -0.050154
v -0.304830 0.198868 0.033437
v -0.312000 0.199740 -0.050288
v -0.303444 0.198082 0.033310
v -0.310615 0.198954 -0.050415
v -0.302230 0.197025 0.033195
v -0.309401 0.197897 -0.050530
v -0.301235 0.195737 0.033097
v -0.308405 0.196608 -0.050629
v -0.300495 0.194267 0.033018
v -0.307666 0.195138 -0.050707
v -0.300040 0.192672 0.032962
v -0.307211 0.193543 -0.050763
v -0.299888 0.191013 0.032932
v -0.307058 0.191885 -0.050793
v -0.300043 0.189355 0.032928
v -0.307214 0.190226 -0.050797
v -0.300501 0.187760 0.032951
v -0.307671 0.188631 -0.050774
v -0.301243 0.186290 0.032999
v -0.308413 0.187161 -0.050726
v -0.302241 0.185001 0.033071
v -0.309412 0.185873 -0.050654
v -0.303457 0.183944 0.033164
v -0.310627 0.184816 -0.050561
v -0.304843 0.183158 0.033275
v -0.312014 0.184030 -0.050450
v -0.306348 0.182675 0.033398
v -0.313518 0.183546 -0.050327
v -0.307912 0.182511 0.033531
v -0.315082 0.183383 -0.050194
v -0.309476 0.182675 0.033666
v -0.316646 0.183546 -0.050059
v -0.310979 0.183158 0.033800
v -0.318149 0.184030 -0.049925
v -0.312364 0.183944 0.033927
v -0.319535 0.184816 -0.049798
v -0.313578 0.185001 0.034042
v -0.320749 0.185873 -0.049683
v -0.314574 0.186290 0.034141
v -0.321744 0.187161 -0.049585
v -0.315313 0.187760 0.034219
v -0.322484 0.188631 -0.049506
v -0.315768 0.189355 0.034275
v -0.322939 0.190226 -0.049450
v -0.315921 0.191013 0.034305
v -0.323091 0.191885 -0.049420
v -0.315765 0.192672 0.034309
v -0.322936 0.193543 -0.049416
v -0.315308 0.194267 0.034287
v -0.322478 0.195138 -0.049439
v -0.314566 0.195737 0.034238
v -0.321736 0.196608 -0.049487
v -0.313567 0.197025 0.034166
v -0.320738 0.197897 -0.049559
v -0.312352 0.198082 0.034073
v -0.319522 0.198954 -0.049652
v -0.310965 0.198868 0.033962
v -0.318136 0.199740 -0.049763
v -0.309461 0.199352 0.033839
v -0.316631 0.200223 -0.049886
vn 0.1040 0.9946 0.0014
vn 0.3050 0.9522 -0.0162
vn 0.4908 0.8707 -0.0330
vn 0.6535 0.7554 -0.0481
vn 0.7875 0.6133 -0.0611
vn 0.8895 0.4513 -0.0715
vn 0.9579 0.2759 -0.0792
vn 0.9921 0.0928 -0.0840
vn 0.9920 -0.0928 -0.0859
vn 0.9574 -0.2759 -0.0849
vn 0.8887 -0.4513 -0.0808
vn 0.7864 -0.6133 -0.0737
vn 0.6521 -0.7554 -0.0637
vn 0.4892 -0.8707 -0.0510
vn 0.3033 -0.9522 -0.0359
vn 0.1023 -0.9946 -0.0191
vn -0.1040 -0.9946 -0.0014
vn -0.3050 -0.9522 0.0162
vn -0.4908 -0.8707 0.0330
vn -0.6535 -0.7554 0.0481
vn -0.7875 -0.6133 0.0611
vn -0.8895 -0.4513 0.0715
vn -0.9579 -0.2759 0.0792
vn -0.9921 -0.0928 0.0840
vn -0.9920 0.0928 0.0859
vn -0.9574 0.2759 0.0849
vn -0.8887 0.4513 0.0808
vn -0.7864 0.6133 0.0737
vn -0.6521 0.7554 0.0637
vn -0.4892 0.8707 0.0510
vn -0.0853 0.0104 -0.9963
vn -0.3033 0.9522 0.0359
vn -0.1023 0.9946 0.0191
vn 0.0853 -0.0104 0.9963
vt 1.000000 0.500000
vt 1.000000 1.000000
vt 0.968750 1.000000
vt 0.968750 0.500000
vt 0.937500 1.000000
vt 0.937500 0.500000
vt 0.906250 1.000000
vt 0.906250 0.500000
vt 0.875000 1.000000
vt 0.875000 0.500000
vt 0.843750 1.000000
vt 0.843750 0.500000
vt 0.812500 1.000000
vt 0.812500 0.500000
vt 0.781250 1.000000
vt 0.781250 0.500000
vt 0.750000 1.000000
vt 0.750000 0.500000
vt 0.718750 1.000000
vt 0.718750 0.500000
vt 0.687500 1.000000
vt 0.687500 0.500000
vt 0.656250 1.000000
vt 0.656250 0.500000
vt 0.625000 1.000000
vt 0.625000 0.500000
vt 0.593750 1.000000
vt 0.593750 0.500000
vt 0.562500 1.000000
vt 0.562500 0.500000
vt 0.531250 1.000000
vt 0.531250 0.500000
vt 0.500000 1.000000
vt 0.500000 0.500000
vt 0.468750 1.000000
vt 0.468750 0.500000
vt 0.437500 1.000000
vt 0.437500 0.500000
vt 0.406250 1.000000
vt 0.406250 0.500000
vt 0.375000 1.000000
vt 0.375000 0.500000
vt 0.343750 1.000000
vt 0.343750 0.500000
vt 0.312500 1.000000
vt 0.312500 0.500000
vt 0.281250 1.000000
vt 0.281250 0.500000
vt 0.250000 1.000000
vt 0.250000 0.500000
vt 0.218750 1.000000
vt 0.218750 0.500000
vt 0.187500 1.000000
vt 0.187500 0.500000
vt 0.156250 1.000000
vt 0.156250 0.500000
vt 0.125000 1.000000
vt 0.125000 0.500000
vt 0.093750 1.000000
vt 0.093750 0.500000
vt 0.062500 1.000000
vt 0.062500 0.500000
vt 0.296822 0.485388
vt 0.250000 0.490000
vt 0.203178 0.485388
vt 0.158156 0.471731
vt 0.116663 0.449553
vt 0.080294 0.419706
vt 0.050447 0.383337
vt 0.028269 0.341844
vt 0.014612 0.296822
vt 0.010000 0.250000
vt 0.014612 0.203178
vt 0.028269 0.158156
vt 0.050447 0.116663
vt 0.080294 0.080294
vt 0.116663 0.050447
vt 0.158156 0.028269
vt 0.203178 0.014612
vt 0.250000 0.010000
vt 0.296822 0.014612
vt 0.341844 0.028269
vt 0.383337 0.050447
vt 0.419706 0.080294
vt 0.449553 0.116663
vt 0.471731 0.158156
vt 0.485388 0.203178
vt 0.490000 0.250000
vt 0.485388 0.296822
vt 0.471731 0.341844
vt 0.449553 0.383337
vt 0.419706 0.419706
vt 0.383337 0.449553
vt 0.341844 0.471731
vt 0.031250 1.000000
vt 0.031250 0.500000
vt 0.000000 1.000000
vt 0.000000 0.500000
vt 0.750000 0.490000
vt 0.796822 0.485388
vt 0.841844 0.471731
vt 0.883337 0.449553
vt 0.919706 0.419706
vt 0.949553 0.383337
vt 0.971731 0.341844
vt 0.985388 0.296822
vt 0.990000 0.250000
vt 0.985388 0.203178
vt 0.971731 0.158156
vt 0.949553 0.116663
vt 0.919706 0.080294
vt 0.883337 0.050447
vt 0.841844 0.028269
vt 0.796822 0.014612
vt 0.750000 0.010000
vt 0.703178 0.014612
vt 0.658156 0.028269
vt 0.616663 0.050447
vt 0.580294 0.080294
vt 0.550447 0.116663
vt 0.528269 0.158156
vt 0.514612 0.203178
vt 0.510000 0.250000
vt 0.514612 0.296822
vt 0.528269 0.341844
vt 0.550447 0.383337
vt 0.580294 0.419706
vt 0.616663 0.449553
vt 0.658156 0.471731
vt 0.703178 0.485388
s 0
usemtl Metallic
f 1/1/1 3/4/1 4/3/1 2/2/1
f 3/4/2 5/6/2 6/5/2 4/3/2
f 5/6/3 7/8/3 8/7/3 6/5/3
f 7/8/4 9/10/4 10/9/4 8/7/4
f 9/10/5 11/12/5 12/11/5 10/9/5
f 11/12/6 13/14/6 14/13/6 12/11/6
f 13/14/7 15/16/7 16/15/7 14/13/7
f 15/16/8 17/18/8 18/17/8 16/15/8
f 17/18/9 19/20/9 20/19/9 18/17/9
f 19/20/10 21/22/10 22/21/10 20/19/10
f 21/22/11 23/24/11 24/23/11 22/21/11
f 23/24/12 25/26/12 26/25/12 24/23/12
f 25/26/13 27/28/13 28/27/13 26/25/13
f 27/28/14 29/30/14 30/29/14 28/27/14
f 29/30/15 31/32/15 32/31/15 30/29/15
f 31/32/16 33/34/16 34/33/16 32/31/16
f 33/34/17 35/36/17 36/35/17 34/33/17
f 35/36/18 37/38/18 38/37/18 36/35/18
f 37/38/19 39/40/19 40/39/19 38/37/19
f 39/40/20 41/42/20 42/41/20 40/39/20
f 41/42/21 43/44/21 44/43/21 42/41/21
f 43/44/22 45/46/22 46/45/22 44/43/22
f 45/46/23 47/48/23 48/47/23 46/45/23
f 47/48/24 49/50/24 50/49/24 48/47/24
f 49/50/25 51/52/25 52/51/25 50/49/25
f 51/52/26 53/54/26 54/53/26 52/51/26
f 53/54/27 55/56/27 56/55/27 54/53/27
f 55/56/28 57/58/28 58/57/28 56/55/28
f 57/58/29 59/60/29 60/59/29 58/57/29
f 59/60/30 61/62/30 62/61/30 60/59/30
f 4/63/31 6/94/31 8/93/31 10/92/31 12/91/31 14/90/31 16/89/31 18/88/31 20/87/31 22/86/31 24/85/31 26/84/31 28/83/31 30/82/31 32/81/31 34/80/31 36/79/31 38/78/31 40/77/31 42/76/31 44/75/31 46/74/31 48/73/31 50/72/31 52/71/31 54/70/31 56/69/31 58/68/31 60/67/31 62/66/31 64/65/31 2/64/31
f 61/62/32 63/96/32 64/95/32 62/61/32
f 63/96/33 1/98/33 2/97/33 64/95/33
f 1/99/34 63/130/34 61/129/34 59/128/34 57/127/34 55/126/34 53/125/34 51/124/34 49/123/34 47/122/34 45/121/34 43/120/34 41/119/34 39/118/34 37/117/34 35/116/34 33/115/34 31/114/34 29/113/34 27/112/34 25/111/34 23/110/34 21/109/34 19/108/34 17/107/34 15/106/34 13/105/34 11/104/34 9/103/34 7/102/34 5/101/34 3/100/34
